<?xml version="1.0" encoding="UTF-8"?>
<!DOCTYPE svg PUBLIC "-//W3C//DTD SVG 1.1//EN" "http://www.w3.org/Graphics/SVG/1.1/DTD/svg11.dtd">
<svg xmlns="http://www.w3.org/2000/svg" version="1.1" width="1869px" height="450px" style="shape-rendering:geometricPrecision; text-rendering:geometricPrecision; image-rendering:optimizeQuality; fill-rule:evenodd; clip-rule:evenodd" xmlns:xlink="http://www.w3.org/1999/xlink">
<g><path style="opacity:0.951" fill="#01569a" d="M 80.5,161.5 C 80.4346,161.938 80.6012,162.272 81,162.5C 83.8491,161.622 86.3491,160.289 88.5,158.5C 123.117,148.564 158.451,143.064 194.5,142C 196.5,141 198.5,140 200.5,139C 241.833,104 283.167,69 324.5,34C 350.167,33.3333 375.833,33.3333 401.5,34C 406.404,35.1562 406.738,37.1562 402.5,40C 342.167,92.3333 281.833,144.667 221.5,197C 187.324,197.489 153.324,200.155 119.5,205C 99.4633,208.123 79.9633,213.29 61,220.5C 59.5,220.333 58.6667,219.5 58.5,218C 62.4531,200.687 66.9531,183.521 72,166.5C 73.7341,163.078 76.5674,161.411 80.5,161.5 Z"/></g>
<g><path style="opacity:0.951" fill="#00559a" d="M 355.5,122.5 C 355.435,122.938 355.601,123.272 356,123.5C 357.039,122.756 357.539,121.756 357.5,120.5C 391.294,91.8766 424.961,63.0433 458.5,34C 487.895,33.0243 517.228,33.3576 546.5,35C 547.5,37.0907 546.833,38.7574 544.5,40C 496.874,79.2904 449.541,118.957 402.5,159C 456.531,165.195 510.531,164.861 564.5,158C 577.206,156.059 589.706,153.225 602,149.5C 603.732,149.734 604.566,150.734 604.5,152.5C 600.469,170.29 595.969,187.956 591,205.5C 577.998,210.769 564.498,214.269 550.5,216C 495.871,222.837 441.204,223.17 386.5,217C 347.513,211.573 308.513,206.24 269.5,201C 268.253,199.506 268.253,198.006 269.5,196.5C 297.891,171.437 326.558,146.77 355.5,122.5 Z"/></g>
<g><path style="opacity:0.038" fill="#0000ff" d="M 357.5,120.5 C 357.539,121.756 357.039,122.756 356,123.5C 355.601,123.272 355.435,122.938 355.5,122.5C 355.833,121.5 356.5,120.833 357.5,120.5 Z"/></g>
<g><path style="opacity:0.936" fill="#015499" d="M 753.5,251.5 C 752.618,249.616 751.118,248.283 749,247.5C 748.601,247.728 748.435,248.062 748.5,248.5C 728.587,244.366 709.921,237.199 692.5,227C 679.21,214.258 675.71,199.091 682,181.5C 687.386,168.781 696.219,159.281 708.5,153C 717.593,149.525 726.927,146.858 736.5,145C 760.529,142.921 784.196,144.921 807.5,151C 810.583,152.139 813.583,153.472 816.5,155C 817.576,156.726 817.743,158.559 817,160.5C 814.55,171.801 811.717,182.968 808.5,194C 805.833,194.667 803.167,194.667 800.5,194C 778.036,178.589 754.036,175.589 728.5,185C 723.535,189.528 723.535,194.194 728.5,199C 744.954,205.263 761.621,210.929 778.5,216C 801.148,225.127 809.648,241.627 804,265.5C 798.414,282.753 787.08,294.42 770,300.5C 738.341,310.632 706.508,311.132 674.5,302C 669.669,300.39 665.003,298.39 660.5,296C 659.978,295.439 659.645,294.772 659.5,294C 662.716,281.586 665.549,269.086 668,256.5C 671.073,255.383 674.24,255.216 677.5,256C 700.684,272.569 726.017,276.902 753.5,269C 759.957,265.108 761.124,259.942 757,253.5C 755.887,252.695 754.721,252.028 753.5,251.5 Z"/></g>
<g><path style="opacity:0.94" fill="#01549a" d="M 911.5,144.5 C 925.837,144.333 940.171,144.5 954.5,145C 958.753,145.2 962.92,145.7 967,146.5C 976.971,198.993 985.638,251.66 993,304.5C 975.574,305.658 958.074,305.825 940.5,305C 938.386,294.931 936.72,284.765 935.5,274.5C 910.167,273.167 884.833,273.167 859.5,274.5C 852.51,285.007 845.177,295.174 837.5,305C 821.822,305.653 806.155,305.486 790.5,304.5C 790.34,302.801 790.506,301.134 791,299.5C 831.382,247.958 871.548,196.291 911.5,144.5 Z M 922.5,199.5 C 926.081,214.874 928.748,230.541 930.5,246.5C 914.83,246.667 899.163,246.5 883.5,246C 897.087,230.92 910.087,215.42 922.5,199.5 Z"/></g>
<g><path style="opacity:0.94" fill="#00559b" d="M 1377.5,144.5 C 1401.17,144.333 1424.84,144.5 1448.5,145C 1464.63,144.782 1479.63,148.782 1493.5,157C 1506.31,168.752 1511.14,183.252 1508,200.5C 1503.4,224.77 1489.24,240.604 1465.5,248C 1460.92,249.644 1456.26,250.978 1451.5,252C 1435.25,254.286 1418.92,255.62 1402.5,256C 1398.96,272.703 1395.29,289.369 1391.5,306C 1376.17,306.667 1360.83,306.667 1345.5,306C 1355.05,252.081 1365.72,198.248 1377.5,144.5 Z M 1452.5,182.5 C 1452.83,183.5 1453.5,184.167 1454.5,184.5C 1459.07,190.356 1459.73,196.689 1456.5,203.5C 1455.51,204.795 1454.51,206.128 1453.5,207.5C 1448.41,211.38 1442.74,214.213 1436.5,216C 1427.88,217.252 1419.21,217.752 1410.5,217.5C 1412.59,204.526 1415.26,191.693 1418.5,179C 1430.17,177.542 1441.5,178.709 1452.5,182.5 Z"/></g>
<g><path style="opacity:0.94" fill="#01549a" d="M 1573.5,144.5 C 1587.84,144.333 1602.17,144.5 1616.5,145C 1620.75,145.2 1624.92,145.7 1629,146.5C 1638.97,198.993 1647.64,251.66 1655,304.5C 1637.57,305.658 1620.07,305.825 1602.5,305C 1600.39,294.931 1598.72,284.765 1597.5,274.5C 1572.17,273.167 1546.83,273.167 1521.5,274.5C 1514.51,285.007 1507.18,295.174 1499.5,305C 1483.82,305.653 1468.16,305.486 1452.5,304.5C 1452.34,302.801 1452.51,301.134 1453,299.5C 1493.38,247.958 1533.55,196.291 1573.5,144.5 Z M 1584.5,199.5 C 1588.08,214.874 1590.75,230.541 1592.5,246.5C 1576.83,246.667 1561.16,246.5 1545.5,246C 1559.09,230.92 1572.09,215.42 1584.5,199.5 Z"/></g>
<g><path style="opacity:0.941" fill="#01549a" d="M 1699.5,144.5 C 1731.19,144.125 1762.85,144.625 1794.5,146C 1810.47,147.569 1823.97,154.069 1835,165.5C 1846.95,187.66 1843.78,207.493 1825.5,225C 1817.52,230.822 1808.86,235.322 1799.5,238.5C 1799.35,239.552 1799.52,240.552 1800,241.5C 1813.33,261.5 1826.67,281.5 1840,301.5C 1840.68,302.784 1840.52,303.951 1839.5,305C 1817.83,306.984 1796.17,306.984 1774.5,305C 1761.12,285.08 1747.62,265.247 1734,245.5C 1733.51,243.866 1733.34,242.199 1733.5,240.5C 1750.56,239.883 1765.39,233.883 1778,222.5C 1789.52,197.223 1781.35,185.223 1753.5,186.5C 1748.81,186.686 1744.15,187.019 1739.5,187.5C 1729.99,226.548 1721.82,265.881 1715,305.5C 1708.58,306.157 1702.08,306.491 1695.5,306.5C 1685.22,306.631 1675.06,305.964 1665,304.5C 1675.86,251.064 1687.36,197.73 1699.5,144.5 Z"/></g>
<g><path style="opacity:0.95" fill="#01549b" d="M 1035.5,146.5 C 1055.52,146.185 1075.52,146.685 1095.5,148C 1112.79,175.416 1129.96,202.916 1147,230.5C 1153.66,203.183 1160.33,175.849 1167,148.5C 1184,145.855 1201,145.855 1218,148.5C 1206.55,201.147 1194.38,253.647 1181.5,306C 1165.81,306.819 1150.14,306.486 1134.5,305C 1114.46,271.75 1094.29,238.583 1074,205.5C 1065.22,238.306 1057.22,271.306 1050,304.5C 1039.78,305.97 1029.44,306.636 1019,306.5C 1012.26,306.491 1005.59,306.158 999,305.5C 1010.05,252.281 1022.22,199.281 1035.5,146.5 Z"/></g>
<g><path style="opacity:0.921" fill="#00559b" d="M 1239.5,146.5 C 1278.74,146.17 1317.91,146.503 1357,147.5C 1355.86,158.52 1353.7,169.353 1350.5,180C 1326.17,180.333 1301.83,180.667 1277.5,181C 1275.13,187.989 1273.46,195.155 1272.5,202.5C 1294.52,202.196 1316.52,202.696 1338.5,204C 1339.06,204.725 1339.39,205.558 1339.5,206.5C 1337.39,216.091 1335.06,225.591 1332.5,235C 1309.52,236.132 1286.52,236.798 1263.5,237C 1260.94,247.762 1258.6,258.595 1256.5,269.5C 1280.52,269.191 1304.52,269.691 1328.5,271C 1329.06,271.725 1329.39,272.558 1329.5,273.5C 1327.37,283.195 1324.7,292.695 1321.5,302C 1283.18,303.5 1244.85,303.833 1206.5,303C 1205.23,302.691 1204.07,302.191 1203,301.5C 1214.46,249.721 1226.62,198.054 1239.5,146.5 Z"/></g>
<g><path style="opacity:0.059" fill="#0d35d2" d="M 88.5,158.5 C 86.3491,160.289 83.8491,161.622 81,162.5C 80.6012,162.272 80.4346,161.938 80.5,161.5C 82.936,160.129 85.6027,159.129 88.5,158.5 Z"/></g>
<g><path style="opacity:0.055" fill="#041cee" d="M 1454.5,184.5 C 1453.5,184.167 1452.83,183.5 1452.5,182.5C 1452.43,182.062 1452.6,181.728 1453,181.5C 1454.04,182.244 1454.54,183.244 1454.5,184.5 Z"/></g>
<g><path style="opacity:0.048" fill="#0516f5" d="M 1456.5,203.5 C 1456.72,205.681 1455.88,207.347 1454,208.5C 1453.6,208.272 1453.43,207.938 1453.5,207.5C 1454.51,206.128 1455.51,204.795 1456.5,203.5 Z"/></g>
<g><path style="opacity:0.952" fill="#00559a" d="M 58.5,257.5 C 58.4346,257.938 58.6012,258.272 59,258.5C 60.57,257.642 62.2367,256.975 64,256.5C 65.0299,256.164 65.5299,255.497 65.5,254.5C 107.907,243.303 151.074,237.636 195,237.5C 217.189,237.726 239.356,238.559 261.5,240C 302.275,244.514 342.942,249.847 383.5,256C 384.876,258.54 384.21,260.54 381.5,262C 315.5,316.667 249.5,371.333 183.5,426C 168.898,427.142 154.232,427.642 139.5,427.5C 124.803,427.475 110.136,427.142 95.5,426.5C 95.238,425.022 95.5713,423.689 96.5,422.5C 148.531,381.814 200.198,340.648 251.5,299C 196.632,293.209 141.965,294.876 87.5,304C 71.4507,307.35 55.6174,311.516 40,316.5C 38.5,316.333 37.6667,315.5 37.5,314C 40.9624,297.65 45.129,281.484 50,265.5C 50.7671,260.565 53.6004,257.898 58.5,257.5 Z"/></g>
<g><path style="opacity:0.952" fill="#01559a" d="M 576.5,245.5 C 580.099,244.938 582.099,246.438 582.5,250C 578.412,266.852 574.245,283.685 570,300.5C 569.167,301.333 568.333,302.167 567.5,303C 552.515,307.864 537.182,311.197 521.5,313C 496.891,315.487 472.225,317.153 447.5,318C 404.685,354.238 361.685,390.238 318.5,426C 304.399,427.141 290.232,427.641 276,427.5C 262.457,427.491 248.957,427.158 235.5,426.5C 234.167,425.167 234.167,423.833 235.5,422.5C 299.354,368.812 363.354,315.312 427.5,262C 461.486,260.16 495.486,258.16 529.5,256C 545.673,254.202 561.34,250.702 576.5,245.5 Z"/></g>
<g><path style="opacity:0.063" fill="#0112f5" d="M 753.5,251.5 C 751.632,250.737 749.965,249.737 748.5,248.5C 748.435,248.062 748.601,247.728 749,247.5C 751.118,248.283 752.618,249.616 753.5,251.5 Z"/></g>
<g><path style="opacity:0.059" fill="#0d35d3" d="M 65.5,254.5 C 65.5299,255.497 65.0299,256.164 64,256.5C 62.2367,256.975 60.57,257.642 59,258.5C 58.6012,258.272 58.4346,257.938 58.5,257.5C 60.6794,256.323 63.0128,255.323 65.5,254.5 Z"/></g>
</svg>
